HIERARCHY
ROOT Hips
{
	OFFSET 0.00 0.00 0.00
	CHANNELS 6 Xposition Yposition Zposition Xrotation Yrotation Zrotation
	JOINT Spine
	{
		OFFSET 0.00000 7.17041 0.00000
		CHANNELS 3 Xrotation Yrotation Zrotation
		JOINT Head
		{
			OFFSET 0.00000 14.27615 0.00000
			CHANNELS 3 Xrotation Yrotation Zrotation
			End Site
			{
				OFFSET 0.00000 4.52755 0.00000
			}
		}
		JOINT LeftShoulder
		{
			OFFSET 0.00000 10.71824 0.00000
			CHANNELS 3 Xrotation Yrotation Zrotation
			JOINT LeftArm
			{
				OFFSET 7.05887 0.00000 0.00000
				CHANNELS 3 Xrotation Yrotation Zrotation
				JOINT LeftForeArm
				{
					OFFSET 10.95552 0.00000 0.00000
					CHANNELS 3 Yrotation Zrotation Xrotation
					JOINT LeftHand
					{
						OFFSET 8.19372 0.00000 0.00000
						CHANNELS 3 Xrotation Yrotation Zrotation
						JOINT LeftHandThumb1
						{
							OFFSET 0.00000 0.00000 0.00000
							CHANNELS 3 Xrotation Zrotation Yrotation
							End Site
							{
								OFFSET 0.00000 0.00000 3.93700
							}
						}
						End Site
						{
							OFFSET 3.93700 0.00000 0.00000
						}
					}
				}
			}
		}
		JOINT RightShoulder
		{
			OFFSET 0.00000 10.71824 0.00000
			CHANNELS 3 Xrotation Yrotation Zrotation
			JOINT RightArm
			{
				OFFSET -7.05887 0.00000 0.00000
				CHANNELS 3 Xrotation Yrotation Zrotation
				JOINT RightForeArm
				{
					OFFSET -10.95552 0.00000 0.00000
					CHANNELS 3 Yrotation Zrotation Xrotation
					JOINT RightHand
					{
						OFFSET -8.19372 0.00000 0.00000
						CHANNELS 3 Xrotation Yrotation Zrotation
						JOINT RightHandThumb1
						{
							OFFSET 0.00000 0.00000 0.00000
							CHANNELS 3 Xrotation Zrotation Yrotation
							End Site
							{
								OFFSET 0.00000 0.00000 3.93700
							}
						}
						End Site
						{
							OFFSET -3.93700 0.00000 0.00000
						}
					}
				}
			}
		}
	}
	JOINT LeftUpLeg
	{
		OFFSET 4.31835 0.00000 0.00000
		CHANNELS 3 Xrotation Yrotation Zrotation
		JOINT LeftLeg
		{
			OFFSET 0.00000 -17.32364 0.00000
			CHANNELS 3 Xrotation Yrotation Zrotation
			JOINT LeftFoot
			{
				OFFSET 0.00000 -16.27037 0.00000
				CHANNELS 3 Xrotation Yrotation Zrotation
				JOINT LeftToeBase
				{
					OFFSET 0.00000 -1.27412 4.75510
					CHANNELS 3 Xrotation Yrotation Zrotation
					End Site
					{
						OFFSET 0.00000 0.00000 2.95275
					}
				}
			}
		}
	}
	JOINT RightUpLeg
	{
		OFFSET -4.31835 0.00000 0.00000
		CHANNELS 3 Xrotation Yrotation Zrotation
		JOINT RightLeg
		{
			OFFSET 0.00000 -17.32364 0.00000
			CHANNELS 3 Xrotation Yrotation Zrotation
			JOINT RightFoot
			{
				OFFSET 0.00000 -16.27037 0.00000
				CHANNELS 3 Xrotation Yrotation Zrotation
				JOINT RightToeBase
				{
					OFFSET 0.00000 -1.27412 4.75510
					CHANNELS 3 Xrotation Yrotation Zrotation
					End Site
					{
						OFFSET 0.00000 0.00000 2.95275
					}
				}
			}
		}
	}
}
MOTION
Frames: 19
Frame Time: 0.008333
 -6.7907 35.2734 -11.4653 -0.3964 -7.4078 -5.6668 -3.1977 -1.9230 9.9231 9.5096 11.1665 -10.4444 10.6527 23.9616 4.8081 -63.2938 -3.5564 -18.3744 -16.5212 0.0000 17.8392 -0.2279 8.1716 1.6030 33.1476 -0.0000 26.2537 -15.0877 -0.0692 -22.9316 -19.0808 -4.0021 9.3479 15.3429 -0.0000 31.5516 0.9571 -3.3180 16.1009 32.8623 0.0000 -24.3270 10.6641 13.3253 1.0747 -9.5367 0.0000 -0.0000 -15.5792 28.4452 4.9665 21.2117 0.0000 -0.0000 7.7316 -0.0251 5.9037 -4.7697 0.0000 0.0000 -6.5581 -28.1797 -7.4559 13.3703 -0.0000 0.0000
 -6.7974 35.2747 -11.4738 -0.4241 -7.3786 -5.6642 -3.1737 -1.9045 9.9222 10.1110 11.1586 -10.5633 10.8965 24.0196 4.5502 -62.8735 -3.5036 -18.4603 -17.4918 0.0000 17.7541 -0.2713 8.2127 1.8986 33.1476 -0.0000 26.2537 -15.0115 -0.0699 -22.9179 -19.0748 -4.1098 9.5306 15.2168 -0.0000 31.4744 0.9579 -3.2512 16.4254 32.8623 0.0000 -24.3270 10.6662 13.3381 1.0868 -9.5217 0.0000 0.0000 -15.6122 28.3941 5.0319 21.3683 -0.0000 0.0000 7.7532 -0.0315 5.9108 -4.7719 0.0000 0.0000 -6.5400 -28.1824 -7.4501 13.3123 -0.0000 0.0000
 -6.8047 35.2753 -11.4803 -0.4994 -7.3483 -5.6689 -3.0984 -1.8516 9.9131 10.7428 11.2452 -10.6322 11.0942 24.0585 4.3100 -62.4794 -3.4538 -18.5333 -18.4676 -0.0000 17.7000 -0.3076 8.1286 2.1744 33.1476 -0.0000 26.2537 -14.8964 -0.0895 -22.9065 -19.1892 -4.2824 9.6981 15.1326 -0.0000 31.3866 0.9364 -3.1375 16.6273 32.8623 0.0000 -24.3270 10.7276 13.3515 1.0970 -9.5248 -0.0000 0.0000 -15.5398 28.3861 4.9110 21.2460 0.0000 0.0000 7.8310 -0.0672 5.9256 -4.7854 -0.0000 -0.0000 -6.5382 -28.1797 -7.4581 13.3377 0.0000 -0.0000
 -6.8135 35.2760 -11.4906 -0.5304 -7.3136 -5.6714 -3.0683 -1.8071 9.9145 11.3643 11.3130 -10.7510 11.4103 24.1230 4.0035 -62.1205 -3.4779 -18.6122 -19.4394 -0.0000 17.5983 -0.3900 8.2496 2.7161 33.1476 -0.0000 26.2537 -14.8487 -0.0754 -22.9301 -19.0554 -4.4541 9.8995 15.0845 -0.0000 31.2586 0.9408 -3.0971 16.9068 32.8623 0.0000 -24.3270 10.7266 13.3295 1.1227 -9.5045 0.0000 -0.0000 -15.5840 28.3585 5.0155 21.4098 0.0000 -0.0000 7.8524 -0.1021 5.9475 -4.7816 0.0000 0.0000 -6.5381 -28.1799 -7.4779 13.3252 -0.0000 0.0000
 -6.8219 35.2771 -11.5033 -0.5567 -7.2839 -5.6676 -3.0286 -1.7693 9.9152 12.0247 11.4432 -10.8632 11.6602 24.1976 3.7002 -61.7266 -3.5278 -18.6755 -20.3901 -0.0000 17.4715 -0.4501 8.3797 3.0857 33.1476 -0.0000 26.2537 -14.8005 -0.0614 -22.9467 -18.9931 -4.6196 10.1147 15.0557 -0.0000 31.2138 0.9912 -3.1907 17.2671 32.8623 0.0000 -24.3270 10.7112 13.3093 1.1419 -9.4704 -0.0000 0.0000 -15.5883 28.3489 5.0219 21.4315 -0.0000 0.0000 7.8648 -0.1089 5.9586 -4.7815 -0.0000 -0.0000 -6.5315 -28.1810 -7.5071 13.3300 0.0000 -0.0000
 -6.8299 35.2779 -11.5141 -0.6181 -7.2877 -5.6806 -2.9549 -1.7036 9.9463 12.7130 11.5405 -11.0139 11.9408 24.2439 3.3986 -61.3146 -3.5095 -18.6770 -21.4123 -0.0000 17.2888 -0.4559 8.3259 3.1456 33.1476 -0.0000 26.2537 -14.7298 -0.0240 -22.9708 -18.9799 -4.8365 10.3277 15.0672 -0.0000 31.1528 0.9983 -3.1798 17.4395 32.8623 0.0000 -24.3270 10.7504 13.3202 1.1621 -9.4685 0.0000 0.0000 -15.5139 28.3595 4.9404 21.2637 0.0000 0.0000 7.9014 -0.0694 5.9759 -4.7749 0.0000 0.0000 -6.5386 -28.2110 -7.5265 13.3795 -0.0000 0.0000
 -6.8390 35.2792 -11.5264 -0.6613 -7.2687 -5.6813 -2.8935 -1.6402 9.9385 13.3998 11.6768 -11.1229 12.1255 24.2919 3.1965 -61.0092 -3.3230 -18.8040 -22.5846 -0.0000 17.1808 -0.5023 8.2854 3.4812 33.1476 -0.0000 26.2537 -14.6579 -0.0306 -22.9589 -18.9481 -5.0458 10.5293 15.1351 -0.0000 30.9949 1.0220 -3.2191 17.6242 32.8623 0.0000 -24.3270 10.7548 13.2914 1.1845 -9.4363 -0.0000 -0.0000 -15.5736 28.3594 5.0411 21.4233 0.0000 -0.0000 7.9239 -0.0684 5.9916 -4.7691 -0.0000 0.0000 -6.5335 -28.2382 -7.5395 13.3613 -0.0000 0.0000
 -6.8462 35.2807 -11.5374 -0.7138 -7.2887 -5.6898 -2.8302 -1.5421 9.9551 14.1152 11.7750 -11.2518 12.3344 24.3636 2.9770 -60.7012 -3.1611 -18.9159 -23.7502 -0.0000 17.0490 -0.5381 8.3042 3.7203 33.1476 -0.0000 26.2537 -14.5472 -0.0376 -22.9667 -18.9328 -5.3150 10.7538 15.2993 -0.0000 30.8893 1.0141 -3.2045 17.5709 32.8623 0.0000 -24.3270 10.7926 13.2966 1.1970 -9.4422 0.0000 -0.0000 -15.4910 28.3983 4.9293 21.2582 -0.0000 0.0000 7.9353 -0.0718 6.0051 -4.7240 -0.0000 0.0000 -6.5408 -28.1993 -7.5526 13.3692 -0.0000 -0.0000
 -6.8550 35.2825 -11.5493 -0.7547 -7.3051 -5.7056 -2.7695 -1.4598 9.9751 14.8466 11.9580 -11.3819 12.5896 24.4140 2.7450 -60.4933 -2.9282 -18.9839 -24.9636 -0.0000 17.0009 -0.5476 8.1575 3.8536 33.1476 -0.0000 26.2537 -14.4052 -0.0609 -22.9500 -18.8832 -5.5267 10.9683 15.4293 -0.0000 30.7113 1.0458 -3.2985 17.6031 32.8623 0.0000 -24.3270 10.8063 13.3104 1.2234 -9.4352 0.0000 0.0000 -15.4719 28.4089 4.9269 21.2563 0.0000 -0.0000 7.9383 -0.0816 6.0297 -4.6861 0.0000 -0.0000 -6.5335 -28.1584 -7.5483 13.3439 -0.0000 0.0000
 -6.8580 35.2870 -11.5614 -0.8009 -7.2863 -5.7324 -2.6816 -1.4147 10.0529 15.5870 12.1314 -11.5899 12.9042 24.4942 2.4235 -60.4102 -2.6745 -19.1233 -26.2591 -0.0000 17.0714 -0.6004 8.4044 4.1010 33.1476 -0.0000 26.2537 -14.2805 -0.0799 -22.9562 -18.7550 -5.7203 11.1848 15.5856 -0.0000 30.5141 1.0588 -3.3624 17.4898 32.8623 0.0000 -24.3270 10.8218 13.2613 1.2577 -9.4282 -0.0000 0.0000 -15.4449 28.4571 4.9352 21.2144 -0.0000 0.0000 7.8414 -1.1316 6.1333 -4.2561 -0.0000 0.0000 -6.6792 -27.3022 -7.6897 13.4614 0.0000 -0.0000
 -6.8642 35.2916 -11.5744 -0.8745 -7.2250 -5.7528 -2.5405 -1.3846 10.0893 16.2973 12.2396 -11.7661 13.1620 24.5719 2.1731 -60.2645 -2.3016 -19.2978 -27.7138 -0.0000 16.9394 -0.6677 8.5194 4.4977 33.1476 -0.0000 26.2537 -14.1328 -0.1446 -22.9252 -18.7026 -5.9355 11.4016 15.7547 -0.0000 30.3165 1.0662 -3.4105 17.3716 32.8623 0.0000 -24.3270 10.8503 13.1946 1.3005 -9.4032 -0.0000 0.0000 -15.3964 28.4725 4.8963 21.1668 0.0000 -0.0000 7.7861 -2.2036 6.2349 -3.8400 0.0000 -0.0000 -6.8146 -26.4918 -7.8376 13.5256 0.0000 -0.0000
 -6.8749 35.2932 -11.5896 -0.9449 -7.2138 -5.7632 -2.4002 -1.2817 10.0868 17.0007 12.3822 -11.8724 13.3353 24.6130 2.0127 -60.1098 -1.8657 -19.4684 -29.1905 -0.0000 16.9786 -0.7377 8.7628 4.8310 33.1476 -0.0000 26.2537 -14.0114 -0.2281 -22.8869 -18.5956 -6.1811 11.6503 15.9459 -0.0000 30.0909 1.0395 -3.3862 17.0764 32.8623 0.0000 -24.3270 10.8788 13.2032 1.3249 -9.3831 -0.0000 0.0000 -15.4006 28.4786 4.9112 21.2258 0.0000 0.0000 7.8146 -2.2253 6.2563 -3.7930 0.0000 -0.0000 -6.8315 -26.4545 -7.8720 13.5256 -0.0000 -0.0000
 -6.8851 35.2956 -11.6057 -1.0156 -7.2331 -5.7829 -2.2610 -1.1924 10.1006 17.7342 12.5756 -12.0207 13.5646 24.7279 1.7877 -60.0031 -1.4727 -19.6574 -30.6766 -0.0000 17.0414 -0.7959 8.8169 5.1784 33.1476 -0.0000 26.2537 -13.8184 -0.2840 -22.8150 -18.5730 -6.4447 11.8863 16.1920 -0.0000 29.8278 1.0927 -3.6091 16.8564 32.8623 0.0000 -24.3270 10.9093 13.2287 1.3527 -9.3628 0.0000 0.0000 -15.4585 28.4689 5.0300 21.4328 -0.0000 0.0000 7.8424 -2.1092 6.2721 -3.7809 -0.0000 -0.0000 -6.7927 -26.5276 -7.7983 13.4813 0.0000 -0.0000
 -6.8955 35.2984 -11.6211 -1.0816 -7.2652 -5.8019 -2.1139 -1.0979 10.1171 18.4905 12.7887 -12.1794 13.8172 24.8733 1.5317 -59.9378 -1.0851 -19.8740 -32.1873 -0.0000 17.1230 -0.8437 8.9718 5.3942 33.1476 -0.0000 26.2537 -13.5993 -0.3697 -22.7181 -18.5904 -6.6762 12.1076 16.3488 -0.0000 29.7187 1.0222 -3.4602 16.4698 32.8623 0.0000 -24.3270 10.9421 13.2644 1.3777 -9.3513 0.0000 -0.0000 -15.3783 28.4939 4.9336 21.2440 0.0000 -0.0000 7.8553 -2.0716 6.2970 -3.7385 -0.0000 0.0000 -6.7747 -26.5303 -7.7851 13.4703 -0.0000 0.0000
 -6.9090 35.3003 -11.6368 -1.1620 -7.2460 -5.8163 -1.9640 -0.9910 10.1070 19.2337 12.9071 -12.2861 14.0653 24.9286 1.3249 -59.8316 -0.6690 -20.0689 -33.6941 -0.0000 17.2779 -0.9254 9.2189 5.7574 33.1476 -0.0000 26.2537 -13.4093 -0.4631 -22.6335 -18.5409 -6.9897 12.3590 16.5872 -0.0000 29.5223 0.9874 -3.4378 16.0363 32.8623 0.0000 -24.3270 10.9736 13.2698 1.4145 -9.3179 0.0000 -0.0000 -15.4153 28.4641 5.0227 21.3947 0.0000 -0.0000 7.8980 -2.1251 6.3294 -3.6927 0.0000 -0.0000 -6.7826 -26.4814 -7.8124 13.4789 0.0000 -0.0000
 -6.9236 35.3026 -11.6583 -1.2414 -7.2002 -5.8175 -1.7736 -0.9311 10.0660 19.9704 13.0398 -12.3899 14.2347 24.9986 1.1221 -59.6894 -0.2643 -20.2232 -35.1876 -0.0000 17.3716 -0.9913 9.3770 6.0620 33.1476 -0.0000 26.2537 -13.2472 -0.5395 -22.5257 -18.4508 -7.2905 12.6510 16.8535 -0.0000 29.2899 1.0024 -3.5921 15.6029 32.8623 0.0000 -24.3270 10.9831 13.2517 1.4442 -9.2682 -0.0000 0.0000 -15.3650 28.5075 4.8961 21.2873 0.0000 -0.0000 7.9369 -2.2132 6.3596 -3.6506 0.0000 0.0000 -6.7897 -26.4527 -7.8536 13.4823 -0.0000 0.0000
 -6.9365 35.3052 -11.6781 -1.3138 -7.1854 -5.8350 -1.5972 -0.8739 10.0632 20.7353 13.2000 -12.5347 14.4116 25.1165 0.9132 -59.5029 0.1472 -20.4232 -36.6797 -0.0000 17.4027 -1.0549 9.4159 6.4219 33.1476 -0.0000 26.2537 -13.0592 -0.5903 -22.4470 -18.3627 -7.6254 12.9906 17.1447 -0.0000 29.1595 0.9601 -3.5603 15.1031 32.8623 0.0000 -24.3270 10.9954 13.2804 1.4811 -9.2341 -0.0000 0.0000 -15.4146 28.4857 4.9948 21.4671 -0.0000 0.0000 7.9730 -2.1992 6.3930 -3.6365 -0.0000 0.0000 -6.7626 -26.4699 -7.8307 13.4500 0.0000 0.0000
 -6.9458 35.3076 -11.6938 -1.4040 -7.2033 -5.8511 -1.4029 -0.7926 10.0608 21.4911 13.3499 -12.6822 14.5736 25.2849 0.7029 -59.3281 0.5598 -20.6688 -38.1260 -0.0000 17.2571 -1.0907 9.2447 6.7585 33.1476 -0.0000 26.2537 -12.8621 -0.6466 -22.3660 -18.1404 -7.9388 13.3574 17.5035 -0.0000 28.8066 0.9681 -3.7359 14.5395 32.8623 0.0000 -24.3270 11.0557 13.3173 1.4984 -9.2327 0.0000 -0.0000 -15.3845 28.4958 4.9937 21.4377 -0.0000 -0.0000 8.0242 -2.1687 6.4102 -3.6169 0.0000 -0.0000 -6.7345 -26.4735 -7.8013 13.4301 0.0000 -0.0000
 -6.9543 35.3090 -11.7124 -1.4676 -7.2397 -5.8371 -1.2487 -0.6767 10.0334 22.2990 13.5392 -12.8287 14.7851 25.3875 0.4628 -59.1686 0.9630 -20.8441 -39.5731 -0.0000 17.0764 -1.1403 9.1910 7.1034 33.1476 -0.0000 26.2537 -12.5797 -0.7470 -22.2888 -18.1935 -8.3027 13.7469 17.8140 -0.0000 28.6284 0.9255 -3.7162 13.9953 32.8623 0.0000 -24.3270 11.0946 13.3876 1.4816 -9.2428 0.0000 -0.0000 -15.3229 28.4960 4.9409 21.4699 0.0000 -0.0000 8.0184 -2.3384 6.4175 -3.5184 0.0000 -0.0000 -6.7886 -26.2942 -7.9501 13.5151 0.0000 0.0000
